# xmcd CD database file
#
# Track frame offsets:
#	150
#	6000
#	43725
#	61825
#	90475
#
# Disc length: 1258 seconds
#
# Revision: 0
# Processed by: cddbd v1.5.1PL0 Copyright (c) Steve Scherf et al.
# Submitted via: CDex 1.51
#
DISCID=3104e805
DTITLE=光栄 - 三國志満漢全席・六
DYEAR=1993
DGENRE=アニメ
TTITLE0=三國志満漢全席・六
TTITLE1=三國志満漢全席・六
TTITLE2=三國志満漢全席・六
TTITLE3=三國志満漢全席・六
TTITLE4=三國志満漢全席・六
EXTD=YEAR: 1993/6/25
EXTT0=
EXTT1=
EXTT2=
EXTT3=
EXTT4=
PLAYORDER=
